<svg width="685" height="642" viewBox="0 0 685 642" fill="none" xmlns="http://www.w3.org/2000/svg">
<g opacity="0.4" clip-path="url(#clip0_14_349)">
<path d="M152.533 70.9071L438.185 240.335L438.048 253.181L702.594 406.013L759.834 439.067L732.424 454.885L795.557 489.996L762.438 509.151L699.305 474.04L587.977 538.319L443.575 621.752L280.307 716.113L295.199 724.707L187.16 787.157L152.533 807.135L152.533 70.9071Z" fill="white"/>
<path style="mix-blend-mode:multiply" opacity="0.56" d="M95.4758 55.2261L152.533 88.1882L232.614 134.454L427.632 247.192L438.048 253.181L702.594 406.013L759.834 439.067L732.424 454.885L699.305 474.041L587.977 538.319L443.575 621.752L280.307 716.113L152.533 789.946L95.4758 822.908L95.4758 55.2261Z" fill="url(#paint0_linear_14_349)"/>
<path opacity="0.7" d="M95.4758 253.776L111.83 263.239L152.533 286.738L299.859 371.909L587.977 538.319L443.575 621.752L280.307 716.113L152.533 789.946L95.4758 822.908L95.4758 253.776Z" fill="url(#paint1_linear_14_349)"/>
<path d="M32.9369 0.000212183L152.533 70.9074L438.185 240.335L438.048 253.181L437.728 278.189L152.533 109.036L95.4761 75.2048L-1.13487e-05 18.5613L32.9369 0.000212183Z" fill="white"/>
<path d="M79.0759 164.444L79.0759 673.687L111.83 654.806L111.83 183.371L79.0759 164.444Z" fill="url(#paint2_linear_14_349)"/>
<path d="M499.216 325.186L732.425 454.885L795.558 489.996L762.438 509.151L699.305 474.041L466.782 344.661L499.216 325.186Z" fill="url(#paint3_linear_14_349)"/>
<path opacity="0.63" d="M143.99 288.155L143.99 372.229L104.886 342.513L88.6692 330.215L121.012 305.619L143.99 288.155Z" fill="url(#paint4_linear_14_349)"/>
<path opacity="0.63" d="M63.4528 288.155L63.4528 372.229L24.3487 342.513L8.13147 330.215L40.4746 305.619L63.4528 288.155Z" fill="url(#paint5_linear_14_349)"/>
</g>
<defs>
<linearGradient id="paint0_linear_14_349" x1="427.632" y1="822.908" x2="427.632" y2="55.2262" gradientUnits="userSpaceOnUse">
<stop stop-color="#069353"/>
<stop offset="1" stop-color="#035124"/>
</linearGradient>
<linearGradient id="paint1_linear_14_349" x1="341.749" y1="822.908" x2="341.749" y2="253.776" gradientUnits="userSpaceOnUse">
<stop stop-color="white"/>
<stop offset="1" stop-color="white" stop-opacity="0"/>
</linearGradient>
<linearGradient id="paint2_linear_14_349" x1="231.015" y1="540.879" x2="-91.1987" y2="274.178" gradientUnits="userSpaceOnUse">
<stop stop-color="#069353"/>
<stop offset="1" stop-color="white"/>
</linearGradient>
<linearGradient id="paint3_linear_14_349" x1="562.349" y1="474.361" x2="715.48" y2="347.61" gradientUnits="userSpaceOnUse">
<stop stop-color="white"/>
<stop offset="1" stop-color="#069353"/>
</linearGradient>
<linearGradient id="paint4_linear_14_349" x1="-325.304" y1="627.65" x2="-5.89123" y2="425.48" gradientUnits="userSpaceOnUse">
<stop stop-color="#025E29"/>
<stop offset="1" stop-color="#069353"/>
</linearGradient>
<linearGradient id="paint5_linear_14_349" x1="-343.531" y1="588.105" x2="-24.1183" y2="385.981" gradientUnits="userSpaceOnUse">
<stop stop-color="#025E29"/>
<stop offset="1" stop-color="#069353"/>
</linearGradient>
<clipPath id="clip0_14_349">
<rect width="849.561" height="795.558" fill="white" transform="translate(0 849.561) rotate(-90)"/>
</clipPath>
</defs>
</svg>
