<svg width="130" height="82" viewBox="0 0 130 82" fill="none" xmlns="http://www.w3.org/2000/svg">
<g clip-path="url(#clip0_15_591)">
<path d="M2.94346 79.0864C0.981154 77.1262 0 74.6494 0 71.656C0 68.6626 1.00775 66.1297 3.05281 64.1695C5.09787 62.2093 7.63054 61.2292 10.6568 61.2292C13.9253 61.2292 16.9515 62.5636 18.7779 64.4972L16.1359 67.3814C14.6375 65.8847 12.8112 65.123 10.6597 65.123C8.78015 65.123 7.22567 65.7489 5.99923 66.974C4.77278 68.1991 4.14626 69.7519 4.14626 71.6294C4.14626 73.507 4.74619 75.0037 5.94603 76.2583C7.17247 77.51 8.72695 78.1358 10.6065 78.1358C12.6782 78.1358 14.7203 77.265 16.0029 75.9867V73.2383H10.444V69.7253H19.6822V78C17.12 80.6687 14.0672 82.0001 10.5001 82.0001C7.44732 82.0001 4.94124 81.02 2.95233 79.0864H2.94346Z" fill="#025E29"/>
<path d="M34.2754 81.699L30.0257 74.3778H27.6289V81.699H23.595V61.5835H31.3083C33.5425 61.5835 35.2595 62.2093 36.4327 63.4345C37.603 64.6596 38.2029 66.1563 38.2029 67.9541C38.2029 70.5667 36.8406 72.8811 34.1158 73.8612L38.995 81.7019H34.2813L34.2754 81.699ZM27.626 65.312V70.7556H30.9241C33.0223 70.7556 34.0567 69.5571 34.0567 68.0072C34.0567 66.4574 33.0223 65.312 31.2758 65.312H27.623H27.626Z" fill="#025E29"/>
<path d="M53.2956 81.699L51.7973 77.3447H44.7667L43.2122 81.699H38.9891L46.6728 61.5835H49.9709L57.5453 81.699H53.2956ZM48.31 67.0537L45.9133 73.749H50.6536L48.31 67.0537Z" fill="#025E29"/>
<path d="M70.7466 52.8274L74.7244 45.9343V81.7018H71.973L61.5349 69.3709V81.7018H57.5571V61.5863H60.1194L70.7466 74.0263V52.8304V52.8274Z" fill="#025E29"/>
<path d="M81.7609 65.4773H74.7244V61.5835H92.9289V65.4773H85.8481V81.7019H81.7609V65.4773Z" fill="#025E29"/>
<path d="M108.902 81.699L103.456 73.7225L100.976 76.6893V81.699H96.9422V61.5835H100.976V71.0833L108.607 61.5835H113.486L106.101 70.729L113.418 81.699H108.902Z" fill="white"/>
<path d="M113.486 81.699V61.5835H117.52V69.6132H125.966V61.5835H130V81.699H125.966V73.507H117.52V81.699H113.486Z" fill="white"/>
<path d="M33.7493 0L68.465 60.0631V56.5206L36.8199 1.77125H100.11L85.1003 27.7407H87.1454L103.181 0H33.7493Z" fill="url(#paint0_linear_15_591)"/>
<path d="M88.9895 5.22803L78.643 23.0173H74.1008L78.9445 14.6363H73.4861L63.5386 31.847L60.8109 36.5614L62.3801 39.2478L63.5652 41.2789L69.0088 31.8292L72.3867 33.7776L65.6841 45.3026L68.4621 50.1115L76.5241 36.1659L78.8883 32.0743L74.7627 29.6949L71.373 27.7406H81.3915L84.1221 23.0173L94.4036 5.22803H88.9895Z" fill="url(#paint1_linear_15_591)"/>
<path d="M65.6871 19.3596L68.4178 14.6363H57.2557L61.5615 17.0482L58.2368 22.7959L50.7127 9.95136H80.3216L83.0523 5.22803H42.5236L55.5209 27.4956L57.037 30.0934L58.2339 32.1422L65.6723 19.3508L65.6871 19.3596Z" fill="url(#paint2_linear_15_591)"/>
</g>
<defs>
<linearGradient id="paint0_linear_15_591" x1="63.6361" y1="54.3951" x2="67.9593" y2="5.58747" gradientUnits="userSpaceOnUse">
<stop stop-color="#025E29"/>
<stop offset="1" stop-color="#068C88"/>
</linearGradient>
<linearGradient id="paint1_linear_15_591" x1="74.547" y1="55.3633" x2="78.8731" y2="6.55269" gradientUnits="userSpaceOnUse">
<stop stop-color="#025E29"/>
<stop offset="1" stop-color="#068C88"/>
</linearGradient>
<linearGradient id="paint2_linear_15_591" x1="58.4644" y1="53.9374" x2="62.7875" y2="5.12978" gradientUnits="userSpaceOnUse">
<stop stop-color="#025E29"/>
<stop offset="1" stop-color="#068C88"/>
</linearGradient>
<clipPath id="clip0_15_591">
<rect width="130" height="82" fill="white"/>
</clipPath>
</defs>
</svg>
