<svg width="74" height="63" viewBox="0 0 74 63" fill="none" xmlns="http://www.w3.org/2000/svg">
<path d="M63.3656 62.8915C62.8263 62.8915 62.3128 62.5736 62.0946 62.0455L52.0678 37.8573L41.0689 62.0883C40.7564 62.777 39.9423 63.0812 39.2518 62.7718C38.5597 62.4608 38.2522 61.6508 38.5648 60.9638L50.8742 33.8482C51.0992 33.3509 51.6041 33.0313 52.1486 33.0433C52.6964 33.0518 53.1877 33.3851 53.3955 33.8892L64.6348 61.0048C64.9234 61.7021 64.5902 62.5018 63.8877 62.7906C63.716 62.8607 63.5391 62.8949 63.3639 62.8949L63.3656 62.8915Z" fill="#1D1D1B"/>
<path d="M68.1162 35.7759H36.6481C35.889 35.7759 35.2741 35.1641 35.2741 34.4087C35.2741 33.6534 35.889 33.0416 36.6481 33.0416H68.1162C69.6001 33.0416 70.8075 31.8402 70.8075 30.3654V5.75679C70.8075 4.28028 69.6001 3.07889 68.1162 3.07889H36.1328C34.6489 3.07889 33.4415 4.28028 33.4415 5.75679V29.0239C33.4415 29.7792 32.8267 30.391 32.0675 30.391C31.3084 30.391 30.6935 29.7792 30.6935 29.0239V5.75679C30.6935 2.773 33.1341 0.344604 36.1328 0.344604H68.1162C71.115 0.344604 73.5555 2.773 73.5555 5.75679V30.3654C73.5555 33.3492 71.115 35.7759 68.1162 35.7759Z" fill="#069353"/>
<path d="M64.5094 11.1673H38.8619C38.1028 11.1673 37.4879 10.5555 37.4879 9.80013C37.4879 9.04478 38.1028 8.43298 38.8619 8.43298H64.5094C65.2686 8.43298 65.8834 9.04478 65.8834 9.80013C65.8834 10.5555 65.2686 11.1673 64.5094 11.1673Z" fill="#069353"/>
<path d="M64.5094 19.4283H50.9978C50.2387 19.4283 49.6238 18.8165 49.6238 18.0611C49.6238 17.3058 50.2387 16.694 50.9978 16.694H64.5094C65.2686 16.694 65.8834 17.3058 65.8834 18.0611C65.8834 18.8165 65.2686 19.4283 64.5094 19.4283Z" fill="#069353"/>
<path d="M64.5094 27.6875H50.9978C50.2387 27.6875 49.6238 27.0757 49.6238 26.3203C49.6238 25.565 50.2387 24.9532 50.9978 24.9532H64.5094C65.2686 24.9532 65.8834 25.565 65.8834 26.3203C65.8834 27.0757 65.2686 27.6875 64.5094 27.6875Z" fill="#069353"/>
<path d="M15.0453 25.295C9.74168 25.295 5.42731 21.0022 5.42731 15.725C5.42731 10.4478 9.74168 6.15497 15.0453 6.15497C20.349 6.15497 24.6633 10.4478 24.6633 15.725C24.6633 21.0022 20.349 25.295 15.0453 25.295ZM15.0453 8.88926C11.2565 8.88926 8.17531 11.9551 8.17531 15.725C8.17531 19.4949 11.2565 22.5607 15.0453 22.5607C18.8341 22.5607 21.9153 19.4949 21.9153 15.725C21.9153 11.9551 18.8341 8.88926 15.0453 8.88926Z" fill="#1D1D1B"/>
<path d="M22.0304 62.0934H6.80132C6.04218 62.0934 5.42731 61.4816 5.42731 60.7263V46.2568H1.374C0.614866 46.2568 0 45.645 0 44.8896V33.8055C0 27.6055 5.07007 22.5607 11.3012 22.5607H18.6332C21.0721 22.5641 23.5092 23.1469 25.6801 24.2492L36.1002 29.5366C38.1063 30.5568 38.9066 33.0108 37.883 35.0086C37.3866 35.9758 36.5416 36.6936 35.5025 37.0285C34.4634 37.3635 33.3556 37.2763 32.3835 36.7825L23.4044 32.2247V60.728C23.4044 61.4833 22.7896 62.0951 22.0304 62.0951V62.0934ZM8.17532 59.3591H20.6564V29.9912C20.6564 29.5161 20.9055 29.0735 21.3125 28.8257C21.7196 28.5779 22.2279 28.5574 22.6539 28.7744L33.6322 34.3472C33.9516 34.5096 34.314 34.5386 34.6541 34.4275C34.9941 34.3182 35.2724 34.0823 35.4355 33.7662C35.7704 33.1117 35.5094 32.3051 34.8516 31.9718L24.4332 26.6861C22.6453 25.7786 20.6392 25.3001 18.6332 25.2984H11.3012C6.58491 25.2967 2.74801 29.1145 2.74801 33.8072V43.5242H6.80132C7.56045 43.5242 8.17532 44.136 8.17532 44.8913V59.3608V59.3591Z" fill="#1D1D1B"/>
</svg>
