<svg width="68" height="66" viewBox="0 0 68 66" fill="none" xmlns="http://www.w3.org/2000/svg">
<path d="M66.3837 60.1147H58.1345C57.3754 60.1147 56.7605 59.503 56.7605 58.7476C56.7605 57.9923 57.3754 57.3805 58.1345 57.3805H65.0097V2.88437H23.9047V8.80924C23.9047 9.56458 23.2898 10.1764 22.5306 10.1764C21.7715 10.1764 21.1566 9.56458 21.1566 8.80924V1.51723C21.1566 0.761882 21.7715 0.150085 22.5306 0.150085H66.3837C67.1428 0.150085 67.7577 0.761882 67.7577 1.51723V58.7476C67.7577 59.503 67.1428 60.1147 66.3837 60.1147Z" fill="#069353"/>
<path d="M52.3379 65.6226H14.1716C13.4124 65.6226 12.7976 65.0108 12.7976 64.2555C12.7976 63.5001 13.4124 62.8883 14.1716 62.8883H52.3379C54.7785 62.8883 56.7657 60.9111 56.7657 58.4827V10.1764H15.5456V56.0133C15.5456 56.7686 14.9307 57.3804 14.1716 57.3804C13.4124 57.3804 12.7976 56.7686 12.7976 56.0133V8.80922C12.7976 8.05387 13.4124 7.44208 14.1716 7.44208H58.1397C58.8988 7.44208 59.5137 8.05387 59.5137 8.80922V58.4827C59.5137 62.4201 56.2951 65.6226 52.3379 65.6226Z" fill="#1D1D1B"/>
<path d="M52.1593 65.6226H8.82841C4.09497 65.6226 0.242615 61.7895 0.242615 57.078V56.0133C0.242615 55.258 0.857481 54.6462 1.61662 54.6462H44.9492C45.7084 54.6462 46.3232 55.258 46.3232 56.0133C46.3232 56.039 46.3232 56.0646 46.3215 56.0902V57.078C46.3215 60.2822 48.9407 62.8884 52.1593 62.8884C52.9185 62.8884 53.5333 63.5001 53.5333 64.2555C53.5333 65.0108 52.9185 65.6226 52.1593 65.6226ZM2.99921 57.3805C3.15722 60.4446 5.71286 62.8884 8.82841 62.8884H45.8698C44.5096 61.4323 43.6542 59.503 43.5787 57.3805H2.99921Z" fill="#1D1D1B"/>
<path d="M49.2086 18.5313H23.6367C22.8776 18.5313 22.2627 17.9195 22.2627 17.1642C22.2627 16.4089 22.8776 15.7971 23.6367 15.7971H49.2086C49.9678 15.7971 50.5826 16.4089 50.5826 17.1642C50.5826 17.9195 49.9678 18.5313 49.2086 18.5313Z" fill="#069353"/>
<path d="M49.2086 26.659H23.6367C22.8776 26.659 22.2627 26.0472 22.2627 25.2919C22.2627 24.5365 22.8776 23.9247 23.6367 23.9247H49.2086C49.9678 23.9247 50.5826 24.5365 50.5826 25.2919C50.5826 26.0472 49.9678 26.659 49.2086 26.659Z" fill="#1D1D1B"/>
<path d="M49.2086 34.785H23.6367C22.8776 34.785 22.2627 34.1732 22.2627 33.4179C22.2627 32.6625 22.8776 32.0507 23.6367 32.0507H49.2086C49.9678 32.0507 50.5826 32.6625 50.5826 33.4179C50.5826 34.1732 49.9678 34.785 49.2086 34.785Z" fill="#069353"/>
<path d="M28.6742 42.9126H23.6367C22.8776 42.9126 22.2627 42.3008 22.2627 41.5455C22.2627 40.7901 22.8776 40.1783 23.6367 40.1783H28.6742C29.4333 40.1783 30.0482 40.7901 30.0482 41.5455C30.0482 42.3008 29.4333 42.9126 28.6742 42.9126Z" fill="#1D1D1B"/>
<path d="M28.6742 51.0386H23.6367C22.8776 51.0386 22.2627 50.4268 22.2627 49.6715C22.2627 48.9161 22.8776 48.3043 23.6367 48.3043H28.6742C29.4333 48.3043 30.0482 48.9161 30.0482 49.6715C30.0482 50.4268 29.4333 51.0386 28.6742 51.0386Z" fill="#1D1D1B"/>
<path d="M39.1321 48.9879C38.7851 48.9879 38.4399 48.858 38.1737 48.6L33.6326 44.1943C33.0899 43.668 33.0778 42.8016 33.6086 42.2615C34.1375 41.7215 35.0083 41.7096 35.5511 42.2376L39.1355 45.7153L46.6496 38.466C47.194 37.9396 48.0648 37.9533 48.5921 38.4951C49.121 39.0368 49.1073 39.9032 48.5629 40.4279L40.0904 48.6017C39.8242 48.858 39.479 48.9879 39.1338 48.9879H39.1321Z" fill="#069353"/>
</svg>
