<svg width="68" height="67" viewBox="0 0 68 67" fill="none" xmlns="http://www.w3.org/2000/svg">
<path d="M44.9288 39.7879C44.4685 39.7879 44.0202 39.5589 43.7592 39.1419C43.359 38.5011 43.5565 37.6568 44.2023 37.2587C49.7189 33.8511 53.0131 27.9638 53.0131 21.5109C53.0131 11.2966 44.6608 2.98606 34.3936 2.98606C24.1264 2.98606 15.7742 11.2966 15.7742 21.5109C15.7742 27.9655 19.0683 33.8528 24.5849 37.2587C25.229 37.6568 25.4282 38.4993 25.0281 39.1419C24.6279 39.7828 23.7812 39.981 23.1354 39.5828C16.8047 35.6728 13.0262 28.9174 13.0262 21.5109C13.0262 9.78931 22.6115 0.25177 34.3936 0.25177C46.1757 0.25177 55.7611 9.78931 55.7611 21.5109C55.7611 28.9174 51.9826 35.6728 45.6518 39.5828C45.4269 39.7229 45.1761 39.7879 44.9288 39.7879Z" fill="#1D1D1B"/>
<path d="M44.9271 45.5982C44.1679 45.5982 43.5531 44.9864 43.5531 44.2311V38.4207C43.5531 37.6654 44.1679 37.0536 44.9271 37.0536C45.6862 37.0536 46.3011 37.6654 46.3011 38.4207V44.2311C46.3011 44.9864 45.6862 45.5982 44.9271 45.5982Z" fill="#1D1D1B"/>
<path d="M23.8602 45.5982C23.101 45.5982 22.4862 44.9864 22.4862 44.2311V38.4207C22.4862 37.6654 23.101 37.0536 23.8602 37.0536C24.6193 37.0536 25.2342 37.6654 25.2342 38.4207V44.2311C25.2342 44.9864 24.6193 45.5982 23.8602 45.5982Z" fill="#1D1D1B"/>
<path d="M31.017 45.564C30.2579 45.564 29.643 44.9522 29.643 44.1969V36.2863L24.4046 31.074C23.8688 30.5408 23.8688 29.6744 24.4046 29.1412C24.9405 28.608 25.8113 28.608 26.3471 29.1412L31.9874 34.7534C32.245 35.0097 32.3893 35.3583 32.3893 35.7206V44.1969C32.3893 44.9522 31.7745 45.564 31.0153 45.564H31.017Z" fill="#069353"/>
<path d="M37.7702 45.564C37.0111 45.564 36.3962 44.9522 36.3962 44.1969V35.7206C36.3962 35.3583 36.5405 35.0097 36.7981 34.7534L42.4384 29.1412C42.9743 28.608 43.8451 28.608 44.3809 29.1412C44.9168 29.6744 44.9168 30.5408 44.3809 31.074L39.1425 36.2863V44.1969C39.1425 44.9522 38.5277 45.564 37.7685 45.564H37.7702Z" fill="#069353"/>
<path d="M7.20039 22.878H2.16294C1.40381 22.878 0.78894 22.2662 0.78894 21.5109C0.78894 20.7555 1.40381 20.1437 2.16294 20.1437H7.20039C7.95952 20.1437 8.57439 20.7555 8.57439 21.5109C8.57439 22.2662 7.95952 22.878 7.20039 22.878Z" fill="#069353"/>
<path d="M8.53145 14.5179C8.39062 14.5179 8.24807 14.4957 8.10723 14.4513L3.31539 12.903C2.59404 12.6689 2.19901 11.8982 2.43259 11.1804C2.66618 10.4627 3.44249 10.0696 4.16384 10.302L8.95568 11.8503C9.67703 12.0844 10.0721 12.8552 9.83847 13.5729C9.64955 14.1505 9.11197 14.5179 8.53145 14.5179Z" fill="#069353"/>
<path d="M3.91824 33.3195C3.34803 33.3195 2.8156 32.9641 2.6198 32.3967C2.37248 31.6824 2.75376 30.9048 3.47168 30.6587L8.23604 29.0267C8.95396 28.7806 9.73542 29.16 9.98274 29.8743C10.2301 30.5887 9.84877 31.3662 9.13086 31.6123L4.3665 33.2444C4.2188 33.2956 4.06766 33.3195 3.91996 33.3195H3.91824Z" fill="#069353"/>
<path d="M66.626 22.878H61.5886C60.8294 22.878 60.2146 22.2662 60.2146 21.5109C60.2146 20.7555 60.8294 20.1437 61.5886 20.1437H66.626C67.3851 20.1437 68 20.7555 68 21.5109C68 22.2662 67.3851 22.878 66.626 22.878Z" fill="#069353"/>
<path d="M60.2558 14.5179C59.677 14.5179 59.1377 14.1505 58.9488 13.5729C58.7135 12.8551 59.1085 12.0827 59.8316 11.8503L64.6234 10.302C65.3448 10.0678 66.1211 10.4609 66.3547 11.1804C66.5882 11.8998 66.1949 12.6705 65.4719 12.903L60.68 14.4512C60.5392 14.4974 60.3966 14.5179 60.2558 14.5179Z" fill="#069353"/>
<path d="M64.869 33.3195C64.7213 33.3195 64.5702 33.2956 64.4225 33.2444L59.6581 31.6123C58.9402 31.3662 58.5589 30.5887 58.8062 29.8743C59.0535 29.16 59.835 28.7806 60.5529 29.0267L65.3173 30.6587C66.0352 30.9048 66.4165 31.6824 66.1691 32.3967C65.9733 32.9641 65.4409 33.3195 64.8707 33.3195H64.869Z" fill="#069353"/>
<path d="M44.07 52.2203H24.7189C22.1255 52.2203 20.0164 50.1218 20.0164 47.5413C20.0164 44.9608 22.1255 42.8622 24.7189 42.8622H44.07C46.6635 42.8622 48.7726 44.9608 48.7726 47.5413C48.7726 50.1218 46.6635 52.2203 44.07 52.2203ZM24.7189 45.5965C23.642 45.5965 22.7644 46.4681 22.7644 47.5413C22.7644 48.6145 23.6403 49.4861 24.7189 49.4861H44.07C45.1469 49.4861 46.0246 48.6145 46.0246 47.5413C46.0246 46.4681 45.1486 45.5965 44.07 45.5965H24.7189Z" fill="#1D1D1B"/>
<path d="M44.07 58.8442H24.7189C22.1255 58.8442 20.0164 56.7456 20.0164 54.1651C20.0164 51.5847 22.1255 49.4861 24.7189 49.4861H44.07C46.6635 49.4861 48.7726 51.5847 48.7726 54.1651C48.7726 56.7456 46.6635 58.8442 44.07 58.8442ZM24.7189 52.2204C23.642 52.2204 22.7644 53.0919 22.7644 54.1651C22.7644 55.2383 23.6403 56.1099 24.7189 56.1099H44.07C45.1469 56.1099 46.0246 55.2383 46.0246 54.1651C46.0246 53.0919 45.1486 52.2204 44.07 52.2204H24.7189Z" fill="#1D1D1B"/>
<path d="M34.3936 66.7428C29.2583 66.7428 25.0813 62.5867 25.0813 57.477C25.0813 56.7217 25.6962 56.1099 26.4553 56.1099C27.2144 56.1099 27.8293 56.7217 27.8293 57.477C27.8293 61.0777 30.7748 64.0085 34.3936 64.0085C38.0124 64.0085 40.9579 61.0777 40.9579 57.477C40.9579 56.7217 41.5728 56.1099 42.3319 56.1099C43.0911 56.1099 43.7059 56.7217 43.7059 57.477C43.7059 62.5867 39.5289 66.7428 34.3936 66.7428Z" fill="#1D1D1B"/>
</svg>
