<svg width="65" height="58" viewBox="0 0 65 58" fill="none" xmlns="http://www.w3.org/2000/svg">
<path d="M63.6249 57.2979C63.3364 57.2979 63.0496 57.2073 62.8091 57.0313L54.7557 51.127H19.7719C16.4245 51.127 13.7022 48.4183 13.7022 45.0876V32.4603C13.7022 31.705 14.3171 31.0932 15.0762 31.0932C15.8354 31.0932 16.4502 31.705 16.4502 32.4603V45.0876C16.4502 46.9093 17.941 48.3927 19.7719 48.3927H55.2074C55.5011 48.3927 55.7862 48.4867 56.0233 48.6593L62.2509 53.2255V18.4659C62.2509 16.6442 60.7601 15.1625 58.9293 15.1625H43.2055C42.4464 15.1625 41.8315 14.5507 41.8315 13.7954C41.8315 13.04 42.4464 12.4282 43.2055 12.4282H58.9293C62.2767 12.4282 64.9989 15.1369 64.9989 18.4659V55.9308C64.9989 56.4469 64.707 56.9185 64.2449 57.1509C64.0491 57.2501 63.8362 57.2979 63.6249 57.2979Z" fill="#069353"/>
<path d="M57.289 21.911H43.2055C42.4464 21.911 41.8315 21.2992 41.8315 20.5439C41.8315 19.7886 42.4464 19.1768 43.2055 19.1768H57.289C58.0482 19.1768 58.663 19.7886 58.663 20.5439C58.663 21.2992 58.0482 21.911 57.289 21.911Z" fill="#069353"/>
<path d="M57.289 28.1316H43.2055C42.4464 28.1316 41.8315 27.5198 41.8315 26.7644C41.8315 26.0091 42.4464 25.3973 43.2055 25.3973H57.289C58.0482 25.3973 58.663 26.0091 58.663 26.7644C58.663 27.5198 58.0482 28.1316 57.289 28.1316Z" fill="#069353"/>
<path d="M30.2676 45.1457H22.2898C21.5306 45.1457 20.9158 44.5339 20.9158 43.7785C20.9158 43.0232 21.5306 42.4114 22.2898 42.4114H30.2676C31.0267 42.4114 31.6416 43.0232 31.6416 43.7785C31.6416 44.5339 31.0267 45.1457 30.2676 45.1457Z" fill="#069353"/>
<path d="M1.374 39.1456C1.16275 39.1456 0.94978 39.0978 0.753984 38.9986C0.291976 38.7662 0 38.2946 0 37.7785V28.4768C0 28.4631 0 28.4494 0 28.4375V5.49849C0 2.52495 2.43199 0.106812 5.42044 0.106812H39.1591C42.1475 0.106812 44.5795 2.52495 44.5795 5.49849V28.4375C44.5795 31.411 42.1475 33.8291 39.1591 33.8291H9.07872L2.18982 38.879C1.94937 39.055 1.66254 39.1456 1.374 39.1456ZM2.74801 28.3964C2.74801 28.4101 2.74801 28.4238 2.74801 28.4357V35.0715L7.81121 31.3597C7.82838 31.3478 7.84556 31.3341 7.86445 31.3221C8.08944 31.1717 8.35566 31.0914 8.62702 31.0914H39.1591C40.6327 31.0914 41.8315 29.8986 41.8315 28.434V5.49506C41.8315 4.0288 40.6327 2.83768 39.1591 2.83768H5.42044C3.94682 2.83768 2.74801 4.03051 2.74801 5.49506V28.393V28.3964Z" fill="#1D1D1B"/>
<path d="M20.2889 18.7376V17.9549C20.2889 17.3567 20.6444 16.8167 21.194 16.5741C21.9102 16.2562 22.4564 15.9828 22.8325 15.7555C23.3512 15.4393 23.7376 15.1061 23.9901 14.754C24.2426 14.402 24.3697 13.997 24.3697 13.5373C24.3697 12.4384 23.6586 11.8899 22.2382 11.8899C21.589 11.8899 21.0686 12.018 20.6753 12.2727C20.5276 12.3684 20.3851 12.4829 20.2477 12.6179C19.7822 13.0707 19.0574 13.1306 18.4992 12.799C17.6559 12.2983 17.5357 11.1072 18.2897 10.4834C18.5301 10.2835 18.7895 10.1092 19.0677 9.95878C19.8973 9.51104 20.9467 9.28546 22.2159 9.28546C23.9334 9.28546 25.2439 9.63921 26.149 10.3467C27.0541 11.0542 27.5075 12.0454 27.5075 13.3237C27.5075 14.0346 27.3616 14.6652 27.0696 15.2189C26.7776 15.7709 26.3637 16.2733 25.8313 16.7262C25.2971 17.179 24.4315 17.6951 23.2344 18.2761V18.7393C23.2344 19.5476 22.5749 20.2038 21.7625 20.2038C20.9501 20.2038 20.2906 19.5476 20.2906 18.7393L20.2889 18.7376ZM23.5676 23.0013C23.5676 23.6183 23.4268 24.0472 23.1451 24.2882C22.8634 24.5291 22.4134 24.6488 21.7934 24.6488C21.115 24.6488 20.653 24.5137 20.4091 24.2454C20.1635 23.9754 20.0416 23.5619 20.0416 23.0013C20.0416 22.4135 20.1721 21.9897 20.4314 21.7316C20.6908 21.4736 21.1459 21.3437 21.7951 21.3437C22.4443 21.3437 22.9201 21.4736 23.1794 21.7316C23.4388 21.9897 23.5693 22.4135 23.5693 23.0013H23.5676Z" fill="#025E29"/>
</svg>
