<svg width="66" height="58" viewBox="0 0 66 58" fill="none" xmlns="http://www.w3.org/2000/svg">
<path d="M17.6054 44.5726C16.051 44.5726 14.5895 43.9694 13.4903 42.8757C11.2214 40.6182 11.2214 36.944 13.4903 34.6848C14.0261 34.1516 14.8969 34.1516 15.4327 34.6848C15.9686 35.218 15.9686 36.0844 15.4327 36.6176C14.2356 37.8087 14.2356 39.7483 15.4327 40.9412C16.0133 41.5188 16.7844 41.8366 17.6054 41.8366C18.4264 41.8366 19.1975 41.5188 19.778 40.9412L29.0491 31.7164C29.585 31.1832 30.4558 31.1832 30.9916 31.7164C31.5275 32.2495 31.5275 33.116 30.9916 33.6492L21.7205 42.874C20.6213 43.9677 19.1597 44.5709 17.6054 44.5709V44.5726Z" fill="#069353"/>
<path d="M54.3359 34.5617C53.9838 34.5617 53.6335 34.4285 53.3638 34.1619L49.7347 30.5509C49.1989 30.0177 49.1989 29.1513 49.7347 28.6181C50.2706 28.0849 51.1413 28.0849 51.6772 28.6181L54.3342 31.2618L58.2415 27.374C60.895 24.7337 62.3584 21.2218 62.3584 17.4861C62.3584 13.7504 60.8968 10.2385 58.2415 7.59824C52.7609 2.14675 43.8437 2.14675 38.3631 7.59824L34.4575 11.4843L39.3885 16.3907C39.9243 16.9239 39.9243 17.7903 39.3885 18.3235C38.8526 18.8567 37.9818 18.8567 37.446 18.3235L31.5429 12.4499C31.2853 12.1935 31.141 11.8449 31.141 11.4826C31.141 11.1203 31.2853 10.7717 31.5429 10.5154L36.4206 5.66202C42.9712 -0.855845 53.6317 -0.855845 60.184 5.66202C63.358 8.82012 65.1047 13.0173 65.1047 17.4844C65.1047 21.9515 63.3562 26.1487 60.184 29.3068L55.3046 34.1601C55.0366 34.4267 54.6845 34.56 54.3325 34.56L54.3359 34.5617Z" fill="#069353"/>
<path d="M14.7766 36.7064C14.4125 36.7064 14.0622 36.5629 13.8045 36.3066L5.53132 28.0746C2.48619 25.0447 0.809906 21.0168 0.809906 16.7308C0.809906 12.4448 2.48619 8.41682 5.53132 5.38688C8.57646 2.35695 12.6246 0.689026 16.9321 0.689026C21.2396 0.689026 25.2878 2.35695 28.3329 5.38688L39.3936 16.3924C41.6178 18.6055 41.6178 22.2079 39.3936 24.421C37.1695 26.634 33.549 26.634 31.3248 24.421L29.5094 22.6146L15.7505 36.3066C15.4929 36.5629 15.1425 36.7064 14.7784 36.7064H14.7766ZM7.47382 7.31968C4.94737 9.83352 3.55619 13.1745 3.55619 16.7291C3.55619 20.2836 4.94737 23.6263 7.47382 26.1384L14.7766 33.4048L28.5356 19.7128C28.7932 19.4565 29.1436 19.313 29.5077 19.313C29.8718 19.313 30.2222 19.4565 30.4798 19.7128L33.2656 22.4847C34.418 23.6331 36.2953 23.6331 37.4494 22.4847C38.6019 21.338 38.6019 19.4702 37.4494 18.3218L26.3887 7.31626C23.8622 4.80243 20.5045 3.41819 16.9321 3.41819C13.3597 3.41819 10.0003 4.80243 7.47554 7.31626L7.47382 7.31968Z" fill="#1D1D1B"/>
<path d="M54.0062 44.6393C52.4827 44.6393 51.0486 44.048 49.9718 42.9765L43.6101 36.6467C41.3859 34.4336 41.3859 30.8312 43.6101 28.6181C45.8343 26.405 49.4548 26.405 51.6789 28.6181L58.0406 34.948C60.2647 37.1611 60.2647 40.7635 58.0406 42.9765C56.9637 44.048 55.5296 44.6393 54.0062 44.6393ZM47.6445 29.6896C46.8871 29.6896 46.1297 29.9767 45.5526 30.5509C44.4002 31.6976 44.3984 33.5655 45.5526 34.7139L51.9142 41.0437C52.4724 41.5991 53.2161 41.905 54.0062 41.905C54.7962 41.905 55.5382 41.5991 56.0981 41.0437C57.2505 39.8953 57.2505 38.0292 56.0981 36.8808L49.7365 30.5509C49.1594 29.9767 48.4019 29.6896 47.6445 29.6896Z" fill="#1D1D1B"/>
<path d="M47.8798 50.7334C46.4182 50.7334 44.9566 50.1797 43.8454 49.074L37.4838 42.7441C35.2596 40.5311 35.2596 36.9286 37.4838 34.7156C39.7079 32.5025 43.3284 32.5025 45.5526 34.7156L51.9142 41.0455C52.9911 42.1187 53.5854 43.5439 53.5854 45.0597C53.5854 46.5756 52.9911 48.0025 51.9142 49.074C50.8013 50.1814 49.3414 50.7334 47.8798 50.7334ZM41.5182 35.7871C40.7608 35.7871 40.0034 36.0742 39.4263 36.6484C38.2738 37.7951 38.2738 39.6629 39.4263 40.8113L45.7879 47.1412C46.9403 48.2879 48.8176 48.2896 49.9718 47.1412C50.5299 46.5858 50.8374 45.8458 50.8374 45.0597C50.8374 44.2736 50.5299 43.5354 49.9718 42.9783L43.6101 36.6484C43.033 36.0742 42.2756 35.7871 41.5182 35.7871Z" fill="#1D1D1B"/>
<path d="M23.8949 50.8291C22.3405 50.8291 20.8789 50.2258 19.7797 49.1321C17.5109 46.8746 17.5109 43.2004 19.7797 40.9412C20.3156 40.408 21.1864 40.408 21.7222 40.9412C22.2581 41.4744 22.2581 42.3408 21.7222 42.874C20.5251 44.0668 20.5251 46.0048 21.7222 47.1976C22.3027 47.7752 23.0739 48.0931 23.8949 48.0931C24.7158 48.0931 25.487 47.7752 26.0675 47.1976L29.9937 43.291C30.5296 42.7578 31.4004 42.7578 31.9362 43.291C32.4721 43.8242 32.4721 44.6906 31.9362 45.2238L28.01 49.1304C26.9108 50.2241 25.4492 50.8274 23.8949 50.8274V50.8291Z" fill="#069353"/>
<path d="M30.1827 57.0837C28.6919 57.0837 27.2011 56.5198 26.0675 55.3902C23.7987 53.1327 23.7987 49.4585 26.0675 47.1993C26.6034 46.6661 27.4742 46.6661 28.01 47.1993C28.5459 47.7325 28.5459 48.5989 28.01 49.1321C27.4295 49.7097 27.11 50.477 27.11 51.2939C27.11 52.1107 27.4295 52.878 28.01 53.4557C29.2071 54.6468 31.1565 54.6485 32.3553 53.4557L35.148 50.6769C35.6838 50.1438 36.5546 50.1438 37.0905 50.6769C37.6263 51.2101 37.6263 52.0766 37.0905 52.6097L34.2978 55.3885C33.1625 56.5181 31.6717 57.082 30.1827 57.082V57.0837Z" fill="#069353"/>
<path d="M41.7535 56.8274C40.2919 56.8274 38.8303 56.2737 37.719 55.168L31.3574 48.8381C30.2806 47.7649 29.6863 46.3397 29.6863 44.8239C29.6863 43.308 30.2806 41.8811 31.3574 40.8096C32.4343 39.7381 33.8684 39.1468 35.3918 39.1468C36.9153 39.1468 38.3494 39.7381 39.4263 40.8096L45.7879 47.1395C48.012 49.3525 48.012 52.9549 45.7879 55.168C44.6749 56.2754 43.2151 56.8274 41.7535 56.8274ZM35.3901 41.8794C34.6001 41.8794 33.8581 42.1853 33.2982 42.7407C32.74 43.2961 32.4326 44.036 32.4326 44.8221C32.4326 45.6082 32.74 46.3465 33.2982 46.9036L39.6598 53.2335C40.8123 54.3802 42.6895 54.3802 43.8437 53.2335C44.9961 52.0868 44.9961 50.219 43.8437 49.0705L37.482 42.7407C36.9238 42.1853 36.1802 41.8794 35.3901 41.8794Z" fill="#1D1D1B"/>
</svg>
