<svg width="64" height="67" viewBox="0 0 64 67" fill="none" xmlns="http://www.w3.org/2000/svg">
<path d="M42.905 66.356H5.72959C2.56939 66.356 0 63.7977 0 60.6533V13.8183L0.401896 13.4184C3.48997 10.3458 5.69868 8.14809 8.16845 5.69064L12.9998 0.883423H42.905C46.0652 0.883423 48.6346 3.44169 48.6346 6.58612V30.747H45.8866V6.58612C45.8866 4.94897 44.5486 3.61771 42.905 3.61771H14.1368L10.1127 7.62344C7.75109 9.97322 5.62826 12.0855 2.74801 14.9513V60.6533C2.74801 62.2904 4.08594 63.6217 5.72959 63.6217H42.905C44.5486 63.6217 45.8866 62.2904 45.8866 60.6533V49.6136H48.6346V60.6533C48.6346 63.7977 46.0635 66.356 42.905 66.356Z" fill="#1D1D1B"/>
<path d="M11.5742 18.2017H1.37399V15.4674H11.576C12.9019 15.4674 13.9805 14.3942 13.9805 13.0749V2.25055H16.7285V13.0732C16.7285 15.8998 14.4167 18.2 11.576 18.2L11.5742 18.2017Z" fill="#1D1D1B"/>
<path d="M39.056 54.0226C35.3394 54.0226 31.846 52.582 29.2182 49.969C26.5904 47.3561 25.1443 43.8784 25.1443 40.1803C25.1443 36.4822 26.5921 33.0062 29.2182 30.3915C34.6421 24.9947 43.4683 24.9947 48.8922 30.3915C51.52 33.0062 52.9661 36.4822 52.9661 40.1803C52.9661 43.8784 51.5182 47.3544 48.8922 49.969C46.2661 52.5837 42.771 54.0226 39.0543 54.0226H39.056ZM39.056 29.0774C36.1964 29.0774 33.3385 30.1608 31.1624 32.326C29.0533 34.4246 27.8923 37.2136 27.8923 40.1803C27.8923 43.147 29.0533 45.936 31.1624 48.0345C33.2715 50.1331 36.0744 51.2883 39.056 51.2883C42.0376 51.2883 44.8423 50.1331 46.9497 48.0345C49.0588 45.936 50.2198 43.147 50.2198 40.1803C50.2198 37.2136 49.0588 34.4229 46.9497 32.326C44.7736 30.1608 41.914 29.0774 39.056 29.0774Z" fill="#069353"/>
<path d="M48.8937 48.0334L46.9505 49.9669L51.4841 54.4778L53.4272 52.5444L48.8937 48.0334Z" fill="#069353"/>
<path d="M59.6884 64.9222C58.603 64.9222 57.5192 64.512 56.6931 63.69L51.4839 58.5069C49.8317 56.8629 49.8317 54.1884 51.4839 52.5461C53.1361 50.9021 55.824 50.9021 57.4746 52.5461L62.6837 57.7293C63.4841 58.5257 63.9255 59.5835 63.9255 60.7097C63.9255 61.8358 63.4841 62.8937 62.6837 63.69C61.8834 64.4864 60.7722 64.9222 59.6884 64.9222ZM54.4792 54.0465C54.0979 54.0465 53.7167 54.1901 53.4264 54.4806C52.8459 55.0582 52.8459 55.9981 53.4264 56.5758L58.6356 61.759C59.2161 62.3366 60.1607 62.3366 60.7412 61.759C61.0229 61.4787 61.1775 61.1078 61.1775 60.7114C61.1775 60.3149 61.0229 59.9441 60.7412 59.6638L55.5321 54.4806C55.2418 54.1918 54.8605 54.0465 54.4792 54.0465Z" fill="#1D1D1B"/>
<path d="M22.0716 28.8637H11.6137C10.8546 28.8637 10.2397 28.2519 10.2397 27.4966C10.2397 26.7413 10.8546 26.1295 11.6137 26.1295H22.0716C22.8308 26.1295 23.4456 26.7413 23.4456 27.4966C23.4456 28.2519 22.8308 28.8637 22.0716 28.8637Z" fill="#069353"/>
<path d="M19.4748 37.1128H11.612C10.8529 37.1128 10.238 36.501 10.238 35.7456C10.238 34.9903 10.8529 34.3785 11.612 34.3785H19.4748C20.2339 34.3785 20.8488 34.9903 20.8488 35.7456C20.8488 36.501 20.2339 37.1128 19.4748 37.1128Z" fill="#1D1D1B"/>
<path d="M19.4748 45.3634H11.612C10.8529 45.3634 10.238 44.7516 10.238 43.9963C10.238 43.2409 10.8529 42.6292 11.612 42.6292H19.4748C20.2339 42.6292 20.8488 43.2409 20.8488 43.9963C20.8488 44.7516 20.2339 45.3634 19.4748 45.3634Z" fill="#069353"/>
<path d="M22.0716 53.6142H11.6137C10.8546 53.6142 10.2397 53.0024 10.2397 52.247C10.2397 51.4917 10.8546 50.8799 11.6137 50.8799H22.0716C22.8308 50.8799 23.4456 51.4917 23.4456 52.247C23.4456 53.0024 22.8308 53.6142 22.0716 53.6142Z" fill="#1D1D1B"/>
</svg>
