<svg width="130" height="82" viewBox="0 0 130 82" fill="none" xmlns="http://www.w3.org/2000/svg">
<g clip-path="url(#clip0_3_22)">
<path d="M2.94346 79.0863C0.981154 77.1261 0 74.6493 0 71.6559C0 68.6625 1.00775 66.1296 3.05281 64.1694C5.09787 62.2092 7.63054 61.2292 10.6568 61.2292C13.9253 61.2292 16.9515 62.5635 18.7779 64.4971L16.1359 67.3813C14.6375 65.8846 12.8112 65.123 10.6597 65.123C8.78015 65.123 7.22567 65.7488 5.99923 66.9739C4.77278 68.199 4.14626 69.7518 4.14626 71.6293C4.14626 73.5069 4.74619 75.0036 5.94603 76.2582C7.17247 77.5099 8.72695 78.1357 10.6065 78.1357C12.6782 78.1357 14.7203 77.2649 16.0029 75.9866V73.2382H10.444V69.7253H19.6822V77.9999C17.12 80.6686 14.0672 82 10.5001 82C7.44732 82 4.94124 81.0199 2.95233 79.0863H2.94346Z" fill="#025E29"/>
<path d="M34.2754 81.6989L30.0257 74.3777H27.629V81.6989H23.595V61.5834H31.3083C33.5425 61.5834 35.2595 62.2092 36.4328 63.4344C37.603 64.6595 38.203 66.1562 38.203 67.954C38.203 70.5666 36.8406 72.881 34.1158 73.8611L38.995 81.7019H34.2813L34.2754 81.6989ZM27.626 65.3119V70.7555H30.9241C33.0224 70.7555 34.0567 69.557 34.0567 68.0071C34.0567 66.4573 33.0224 65.3119 31.2758 65.3119H27.6231H27.626Z" fill="#025E29"/>
<path d="M53.2956 81.6989L51.7973 77.3446H44.7667L43.2122 81.6989H38.9891L46.6728 61.5834H49.9709L57.5453 81.6989H53.2956ZM48.31 67.0536L45.9133 73.7489H50.6536L48.31 67.0536Z" fill="#025E29"/>
<path d="M70.7465 52.8275L74.7243 45.9344V81.7019H71.973L61.5349 69.371V81.7019H57.5571V61.5864H60.1193L70.7465 74.0264V52.8305V52.8275Z" fill="#025E29"/>
<path d="M81.7609 65.4772H74.7244V61.5834H92.9289V65.4772H85.8481V81.7019H81.7609V65.4772Z" fill="#025E29"/>
<path d="M108.902 81.6989L103.456 73.7224L100.976 76.6892V81.6989H96.9422V61.5834H100.976V71.0832L108.607 61.5834H113.486L106.101 70.729L113.418 81.6989H108.902Z" fill="black"/>
<path d="M113.486 81.6989V61.5834H117.52V69.6131H125.966V61.5834H130V81.6989H125.966V73.5069H117.52V81.6989H113.486Z" fill="black"/>
<path d="M33.7493 0L68.465 60.0631V56.5206L36.8199 1.77125H100.11L85.1003 27.7407H87.1454L103.181 0H33.7493Z" fill="url(#paint0_linear_3_22)"/>
<path d="M88.9895 5.22815L78.643 23.0174H74.1008L78.9445 14.6364H73.4861L63.5386 31.8471L60.8109 36.5616L62.3801 39.248L63.5652 41.279L69.0088 31.8294L72.3867 33.7777L65.6841 45.3027L68.4621 50.1116L76.5241 36.166L78.8883 32.0744L74.7627 29.695L71.373 27.7407H81.3915L84.1221 23.0174L94.4036 5.22815H88.9895Z" fill="url(#paint1_linear_3_22)"/>
<path d="M65.6871 19.3598L68.4178 14.6364H57.2557L61.5615 17.0483L58.2368 22.796L50.7127 9.95148H80.3216L83.0523 5.22815H42.5236L55.5209 27.4957L57.037 30.0935L58.2339 32.1423L65.6723 19.3509L65.6871 19.3598Z" fill="url(#paint2_linear_3_22)"/>
</g>
<defs>
<linearGradient id="paint0_linear_3_22" x1="63.6361" y1="54.3951" x2="67.9593" y2="5.58747" gradientUnits="userSpaceOnUse">
<stop stop-color="#025E29"/>
<stop offset="1" stop-color="#068C88"/>
</linearGradient>
<linearGradient id="paint1_linear_3_22" x1="74.547" y1="55.3634" x2="78.8731" y2="6.55281" gradientUnits="userSpaceOnUse">
<stop stop-color="#025E29"/>
<stop offset="1" stop-color="#068C88"/>
</linearGradient>
<linearGradient id="paint2_linear_3_22" x1="58.4644" y1="53.9375" x2="62.7875" y2="5.12991" gradientUnits="userSpaceOnUse">
<stop stop-color="#025E29"/>
<stop offset="1" stop-color="#068C88"/>
</linearGradient>
<clipPath id="clip0_3_22">
<rect width="130" height="82" fill="white"/>
</clipPath>
</defs>
</svg>
